<svg width="500" height="500" viewBox="0 0 500 500" fill="none" xmlns="http://www.w3.org/2000/svg">
<rect width="500" height="500" fill="#FDC93A"/>
<g clip-path="url(#clip0_126_871)">
<path d="M371.696 289.388C384.603 289.388 395.067 278.892 395.067 265.944C395.067 252.997 384.603 242.5 371.696 242.5C358.788 242.5 348.324 252.997 348.324 265.944C348.324 278.892 358.788 289.388 371.696 289.388Z" fill="#F36B4D"/>
<path d="M169.146 199.52C169.146 194.856 165.377 190.949 160.602 190.949C155.827 190.949 152.057 194.73 152.057 199.52C152.057 204.183 155.827 208.091 160.602 208.091C165.251 208.091 169.146 204.309 169.146 199.52Z" stroke="#808080" stroke-width="2"/>
<path d="M328.723 199.52C328.723 194.73 324.953 190.949 320.179 190.949C315.404 190.949 311.634 194.73 311.634 199.52C311.634 204.309 315.404 208.091 320.179 208.091C324.828 208.091 328.723 204.183 328.723 199.52Z" stroke="#808080" stroke-width="2"/>
<path d="M200.056 210.864C200.056 226.871 187.114 239.728 171.282 239.728C155.45 239.728 142.508 226.871 142.508 210.864C142.508 194.982 155.324 182 171.282 182C187.114 182 200.056 194.982 200.056 210.864ZM169.146 199.52C169.146 194.856 165.376 190.949 160.602 190.949C155.827 190.949 152.057 194.73 152.057 199.52C152.057 204.184 155.827 208.091 160.602 208.091C165.251 208.091 169.146 204.31 169.146 199.52Z" fill="black"/>
<path d="M359.633 210.864C359.633 226.745 346.691 239.728 330.859 239.728C315.027 239.728 302.085 226.745 302.085 210.864C302.085 194.982 315.027 182 330.859 182C346.817 182 359.633 194.982 359.633 210.864ZM328.723 199.52C328.723 194.73 324.953 190.949 320.179 190.949C315.404 190.949 311.634 194.73 311.634 199.52C311.634 204.31 315.404 208.091 320.179 208.091C324.828 208.091 328.723 204.184 328.723 199.52Z" fill="black"/>
<path d="M160.602 208.091C165.321 208.091 169.146 204.253 169.146 199.52C169.146 194.786 165.321 190.949 160.602 190.949C155.883 190.949 152.057 194.786 152.057 199.52C152.057 204.253 155.883 208.091 160.602 208.091Z" fill="white"/>
<path d="M129.817 289.64C142.725 289.64 153.188 279.144 153.188 266.196C153.188 253.249 142.725 242.753 129.817 242.753C116.91 242.753 106.446 253.249 106.446 266.196C106.446 279.144 116.91 289.64 129.817 289.64Z" fill="#F36B4D"/>
<path d="M320.179 208.091C324.897 208.091 328.723 204.253 328.723 199.52C328.723 194.786 324.897 190.949 320.179 190.949C315.46 190.949 311.634 194.786 311.634 199.52C311.634 204.253 315.46 208.091 320.179 208.091Z" fill="white"/>
<path d="M260.997 271.238C261.123 271.238 261.374 271.364 261.374 271.616V271.742C261.374 277.414 256.725 282.078 251.07 282.078H250.945C245.291 282.078 240.767 277.414 240.767 271.616V271.49C240.767 271.364 240.893 271.112 241.144 271.112L260.997 271.238Z" fill="black"/>
<path d="M248.306 306.908C245.416 307.665 242.401 307.791 239.636 308.673C234.862 310.311 230.087 311.95 225.438 313.589C210.611 318.63 198.925 315.101 190.381 302.875C190.13 302.623 190.13 302.245 190.13 301.867C190.381 299.724 191.638 298.842 193.774 299.22C194.151 299.346 194.528 299.472 194.779 299.85C199.679 306.656 206.087 310.059 213.878 310.059C223.804 310.185 233.102 303.379 243.406 301.867C249.814 300.984 254.966 300.858 258.861 301.488C274.693 304.135 291.781 320.017 306.86 300.48C308.242 298.715 309.624 298.463 311.383 299.85C312.64 300.732 312.765 301.867 311.886 303.127C303.216 315.479 289.52 318.63 275.698 313.336C267.28 310.059 259.866 307.791 253.458 306.53C251.824 306.278 250.191 306.404 248.306 306.908Z" fill="black"/>
</g>
<defs>
<clipPath id="clip0_126_871">
<rect width="290.133" height="136" fill="white" transform="translate(104.933 182)"/>
</clipPath>
</defs>
</svg>
