<svg width="128" height="60" viewBox="0 0 128 60" fill="none" xmlns="http://www.w3.org/2000/svg">
<g clip-path="url(#clip0_122_270)">
<path d="M117.689 47.3772C123.384 47.3772 128 42.7465 128 37.0343C128 31.3221 123.384 26.6914 117.689 26.6914C111.995 26.6914 107.378 31.3221 107.378 37.0343C107.378 42.7465 111.995 47.3772 117.689 47.3772Z" fill="#F36B4D"/>
<path d="M28.3291 7.72938C28.3291 5.67192 26.6661 3.9481 24.5596 3.9481C22.4531 3.9481 20.7901 5.61631 20.7901 7.72938C20.7901 9.78684 22.4531 11.5107 24.5596 11.5107C26.6107 11.5107 28.3291 9.84244 28.3291 7.72938Z" stroke="#808080" stroke-width="2"/>
<path d="M98.7307 7.72938C98.7307 5.61631 97.0677 3.9481 94.9612 3.9481C92.8547 3.9481 91.1916 5.61631 91.1916 7.72938C91.1916 9.84244 92.8547 11.5107 94.9612 11.5107C97.0122 11.5107 98.7307 9.78684 98.7307 7.72938Z" stroke="#808080" stroke-width="2"/>
<path d="M41.966 12.734C41.966 19.7961 36.2562 25.468 29.2715 25.468C22.2868 25.468 16.577 19.7961 16.577 12.734C16.577 5.72753 22.2313 0 29.2715 0C36.2562 0 41.966 5.72753 41.966 12.734ZM28.3291 7.72938C28.3291 5.67192 26.6661 3.9481 24.5596 3.9481C22.4531 3.9481 20.79 5.61631 20.79 7.72938C20.79 9.78684 22.4531 11.5107 24.5596 11.5107C26.6107 11.5107 28.3291 9.84245 28.3291 7.72938Z" fill="black"/>
<path d="M112.368 12.734C112.368 19.7405 106.658 25.468 99.6731 25.468C92.6883 25.468 86.9786 19.7405 86.9786 12.734C86.9786 5.72753 92.6883 0 99.6731 0C106.713 0 112.368 5.72753 112.368 12.734ZM98.7307 7.72938C98.7307 5.61631 97.0676 3.9481 94.9611 3.9481C92.8546 3.9481 91.1916 5.61631 91.1916 7.72938C91.1916 9.84245 92.8546 11.5107 94.9611 11.5107C97.0122 11.5107 98.7307 9.78684 98.7307 7.72938Z" fill="black"/>
<path d="M24.5596 11.5107C26.6414 11.5107 28.3291 9.81772 28.3291 7.72938C28.3291 5.64103 26.6414 3.9481 24.5596 3.9481C22.4777 3.9481 20.7901 5.64103 20.7901 7.72938C20.7901 9.81772 22.4777 11.5107 24.5596 11.5107Z" fill="white"/>
<path d="M10.9782 47.4884C16.6727 47.4884 21.2889 42.8577 21.2889 37.1455C21.2889 31.4333 16.6727 26.8026 10.9782 26.8026C5.28368 26.8026 0.667389 31.4333 0.667389 37.1455C0.667389 42.8577 5.28368 47.4884 10.9782 47.4884Z" fill="#F36B4D"/>
<path d="M94.9612 11.5107C97.043 11.5107 98.7307 9.81772 98.7307 7.72938C98.7307 5.64103 97.043 3.9481 94.9612 3.9481C92.8793 3.9481 91.1916 5.64103 91.1916 7.72938C91.1916 9.81772 92.8793 11.5107 94.9612 11.5107Z" fill="white"/>
<path d="M68.8516 39.3698C68.907 39.3698 69.0179 39.4254 69.0179 39.5366V39.5922C69.0179 42.0945 66.9668 44.152 64.4723 44.152H64.4168C61.9223 44.152 59.9267 42.0945 59.9267 39.5366V39.481C59.9267 39.4254 59.9821 39.3142 60.093 39.3142L68.8516 39.3698Z" fill="black"/>
<path d="M63.2527 55.1066C61.9777 55.4402 60.6473 55.4958 59.4278 55.8851C57.3213 56.608 55.2147 57.3309 53.1637 58.0538C46.6224 60.278 41.467 58.721 37.6975 53.3272C37.5866 53.2159 37.5866 53.0491 37.5866 52.8823C37.6975 51.937 38.2519 51.5477 39.1942 51.7145C39.3605 51.7702 39.5268 51.8258 39.6377 51.9926C41.7996 54.9954 44.6268 56.4968 48.0637 56.4968C52.443 56.5524 56.5452 53.5496 61.0908 52.8823C63.9179 52.493 66.1907 52.4374 67.9092 52.7155C74.8939 53.8832 82.433 60.8897 89.0851 52.2706C89.6949 51.4921 90.3047 51.3809 91.0807 51.9926C91.6351 52.3818 91.6905 52.8823 91.3025 53.4384C87.4775 58.8879 81.4352 60.278 75.3374 57.9425C71.6233 56.4968 68.3527 55.4958 65.5255 54.9398C64.8049 54.8285 64.0842 54.8841 63.2527 55.1066Z" fill="black"/>
</g>
<defs>
<clipPath id="clip0_122_270">
<rect width="128" height="60" fill="white"/>
</clipPath>
</defs>
</svg>
